<?xml version="1.0" standalone="no"?>
<!DOCTYPE svg PUBLIC "-//W3C//DTD SVG 20010904//EN"
 "http://www.w3.org/TR/2001/REC-SVG-20010904/DTD/svg10.dtd">
<svg version="1.0" xmlns="http://www.w3.org/2000/svg"
 width="100.000000pt" height="100.000000pt" viewBox="0 0 100.000000 100.000000"
 preserveAspectRatio="xMidYMid meet">

<g transform="translate(0.000000,100.000000) scale(0.100000,-0.100000)"
fill="#000000" stroke="none">
<path d="M390 901 c-114 -38 -216 -125 -266 -226 -27 -56 -29 -68 -29 -175 0
-105 2 -120 27 -170 75 -153 212 -240 376 -240 235 0 412 176 412 410 0 167
-87 304 -240 377 -46 23 -71 27 -155 30 -55 1 -111 -1 -125 -6z m263 -69 c80
-37 142 -100 181 -182 27 -57 31 -76 31 -150 0 -74 -4 -93 -31 -150 -39 -83
-101 -145 -184 -184 -57 -27 -76 -31 -150 -31 -74 0 -93 4 -150 31 -83 39
-145 101 -184 184 -27 57 -31 76 -31 150 0 74 4 93 31 150 49 104 143 182 251
210 66 16 168 4 236 -28z"/>
<path d="M395 550 l-49 -50 49 -50 c27 -27 55 -50 62 -50 20 0 15 31 -9 57
l-21 23 81 0 c75 0 82 2 82 20 0 18 -7 20 -82 20 l-81 0 21 23 c24 26 29 57 9
57 -7 0 -35 -22 -62 -50z"/>
<path d="M630 499 c0 -25 33 -22 38 4 2 12 -3 17 -17 17 -15 0 -21 -6 -21 -21z"/>
</g>
</svg>
