<?xml version="1.0" encoding="UTF-8"?>
<svg version="1.1" xmlns="http://www.w3.org/2000/svg" width="73" height="68">
<path d="M0 0 C4.04507382 0.82268773 6.55893119 3.57897349 9.45043945 6.37231445 C10.75657519 7.57019066 12.0638755 8.76679823 13.37231445 9.9621582 C14.32654297 10.84943604 14.32654297 10.84943604 15.30004883 11.75463867 C17.85408888 14.08950897 20.5078716 16.26089696 23.20043945 18.43481445 C24.06411133 19.1412207 24.9277832 19.84762695 25.81762695 20.57543945 C27.24029582 21.7154906 28.67977484 22.83539314 30.14575195 23.91918945 C31.82543945 25.18481445 31.82543945 25.18481445 34.13793945 27.43481445 C34.51293945 30.24731445 34.51293945 30.24731445 34.13793945 32.43481445 C32.48793945 32.76481445 30.83793945 33.09481445 29.13793945 33.43481445 C29.12335693 34.32789307 29.10877441 35.22097168 29.09375 36.14111328 C29.03266868 39.45698723 28.95851467 42.77203345 28.87548828 46.08740234 C28.84224945 47.52186073 28.8142141 48.95644958 28.79150391 50.39111328 C28.75793674 52.45442252 28.70562532 54.51653748 28.6496582 56.5793457 C28.62347412 57.82047119 28.59729004 59.06159668 28.5703125 60.34033203 C28.13793945 63.43481445 28.13793945 63.43481445 26.79760742 65.34057617 C24.14194764 67.09148337 21.7027193 66.79273863 18.57543945 66.74731445 C16.84100586 66.74151367 16.84100586 66.74151367 15.0715332 66.7355957 C12.13793945 66.43481445 12.13793945 66.43481445 10.13793945 64.43481445 C9.8190918 62.55541992 9.8190918 62.55541992 9.72387695 60.30200195 C9.66586914 59.09350586 9.66586914 59.09350586 9.60668945 57.8605957 C9.57575195 57.01883789 9.54481445 56.17708008 9.51293945 55.30981445 C9.45493164 54.03557617 9.45493164 54.03557617 9.39575195 52.7355957 C9.30137451 50.63569762 9.2185636 48.53528555 9.13793945 46.43481445 C7.48793945 46.43481445 5.83793945 46.43481445 4.13793945 46.43481445 C4.10055664 47.62719727 4.06317383 48.81958008 4.0246582 50.0480957 C3.95899914 51.61453345 3.89255177 53.1809383 3.82543945 54.74731445 C3.80288086 55.53299805 3.78032227 56.31868164 3.75708008 57.12817383 C3.72163086 57.88549805 3.68618164 58.64282227 3.6496582 59.4230957 C3.62347412 60.11959229 3.59729004 60.81608887 3.5703125 61.53369141 C2.98489198 64.10775668 2.32914231 64.94673538 0.13793945 66.43481445 C-2.81713867 66.82299805 -2.81713867 66.82299805 -6.39331055 66.83325195 C-7.67850586 66.83711914 -8.96370117 66.84098633 -10.2878418 66.8449707 C-10.95638184 66.83868652 -11.62492187 66.83240234 -12.3137207 66.82592773 C-14.35525385 66.809868 -16.39480762 66.82578116 -18.4362793 66.8449707 C-19.72147461 66.84110352 -21.00666992 66.83723633 -22.33081055 66.83325195 C-23.51094727 66.82986816 -24.69108398 66.82648438 -25.90698242 66.82299805 C-28.86206055 66.43481445 -28.86206055 66.43481445 -30.73828125 65.33837891 C-32.44604655 62.44560331 -32.30337179 59.91666171 -32.3737793 56.5793457 C-32.3917305 55.9177092 -32.4096817 55.25607269 -32.42817688 54.5743866 C-32.48226953 52.46542699 -32.51616985 50.35669347 -32.54956055 48.24731445 C-32.58273482 46.81564237 -32.61722459 45.38400012 -32.65307617 43.95239258 C-32.73799312 40.44675055 -32.80480976 36.94102972 -32.86206055 33.43481445 C-34.51206055 33.10481445 -36.16206055 32.77481445 -37.86206055 32.43481445 C-38.2878418 30.32543945 -38.2878418 30.32543945 -37.86206055 27.43481445 C-35.87043334 25.02618783 -33.4749491 23.143033 -31.04956055 21.18481445 C-30.36901611 20.61633789 -29.68847168 20.04786133 -28.98730469 19.4621582 C-26.95708638 17.77178027 -24.91158008 16.10170273 -22.86206055 14.43481445 C-21.7831921 13.54509018 -20.70499392 12.65455208 -19.62768555 11.76293945 C-17.81179513 10.26809044 -15.9869549 8.78401081 -14.15112305 7.3137207 C-11.90927522 5.52363476 -11.90927522 5.52363476 -10.13549805 3.7746582 C-6.91723731 0.68547209 -4.45694012 -0.11930527 0 0 Z M-6.05737305 10.06762695 C-6.6915918 10.62708008 -7.32581055 11.1865332 -7.97924805 11.76293945 C-8.64182617 12.3559082 -9.3044043 12.94887695 -9.98706055 13.55981445 C-11.27888816 14.71099954 -12.57316545 15.85944153 -13.86987305 17.00512695 C-14.51690186 17.59156982 -15.16393066 18.1780127 -15.83056641 18.78222656 C-17.86206055 20.43481445 -17.86206055 20.43481445 -20.11425781 21.65185547 C-22.61685168 23.05541045 -24.13555202 24.12628796 -25.86206055 26.43481445 C-26.78702225 30.9743239 -26.80585535 35.365171 -26.63037109 39.96728516 C-26.54935557 42.12778061 -26.5278894 44.28270167 -26.51635742 46.44458008 C-26.77344722 53.20682265 -26.77344722 53.20682265 -24.58837891 59.34326172 C-22.45252215 60.69376597 -21.18409558 60.79507816 -18.66674805 60.76293945 C-17.86881836 60.7577832 -17.07088867 60.75262695 -16.2487793 60.74731445 C-15.41991211 60.72668945 -14.59104492 60.70606445 -13.73706055 60.68481445 C-12.4821582 60.67708008 -12.4821582 60.67708008 -11.2019043 60.66918945 C-7.21302974 61.00035699 -7.21302974 61.00035699 -3.86206055 59.43481445 C-3.62487312 55.82429476 -3.46550373 52.22061696 -3.34448242 48.60473633 C-3.0753418 42.6480957 -3.0753418 42.6480957 -0.86206055 40.43481445 C1.70086262 40.26317715 4.14139802 40.20216888 6.70043945 40.24731445 C7.3984668 40.24795898 8.09649414 40.24860352 8.81567383 40.24926758 C13.99762787 40.29450287 13.99762787 40.29450287 15.13793945 41.43481445 C15.29376249 42.77496666 15.38838087 44.12240349 15.4543457 45.4699707 C15.49624023 46.27885742 15.53813477 47.08774414 15.58129883 47.92114258 C15.62061523 48.7712793 15.65993164 49.62141602 15.70043945 50.49731445 C15.74362305 51.35131836 15.78680664 52.20532227 15.83129883 53.08520508 C15.93770647 55.20153483 16.03835676 57.31815258 16.13793945 59.43481445 C17.12793945 59.76481445 18.11793945 60.09481445 19.13793945 60.43481445 C21.67071907 58.56216969 22.11785211 57.55349162 22.65307617 54.39135742 C22.79981224 51.07912813 22.92221149 47.77323263 22.96850586 44.45825195 C23.01245422 42.33327634 23.13103308 40.22070778 23.2512207 38.09887695 C23.4209931 32.58141633 23.47045528 28.07324247 19.85791016 23.63134766 C17.05449816 21.34021005 14.19283612 19.37347862 11.13793945 17.43481445 C9.90749643 16.43782468 8.69349627 15.41961032 7.5090332 14.3684082 C6.54094727 13.54469727 5.57286133 12.72098633 4.57543945 11.87231445 C3.58415039 11.02540039 2.59286133 10.17848633 1.5715332 9.3059082 C-2.03435106 6.53348676 -2.92433531 7.26934971 -6.05737305 10.06762695 Z " fill="#191919" transform="translate(37.862060546875,0.565185546875)"/>
<path d="M0 0 C3.63 0 7.26 0 11 0 C11 4.62 11 9.24 11 14 C7.37 14 3.74 14 0 14 C0 9.38 0 4.76 0 0 Z " fill="#191919" transform="translate(18,31)"/>
</svg>
