<?xml version="1.0" encoding="UTF-8"?>
<svg version="1.1" xmlns="http://www.w3.org/2000/svg" width="100" height="100">
<path d="M0 0 C0 1.65 0 3.3 0 5 C-0.56847656 5.27972656 -1.13695312 5.55945312 -1.72265625 5.84765625 C-11.87659171 11.11956598 -17.93151973 17.87273703 -21.61328125 28.82421875 C-23.33296773 38.49962653 -22.78717208 48.33987273 -18 57 C-17.4225 58.051875 -16.845 59.10375 -16.25 60.1875 C-11.76219784 65.7972527 -6.62511523 70.18432603 0 73 C0 74.65 0 76.3 0 78 C-9.98215622 82.43651387 -22.67598717 82.87623634 -33.0625 79.375 C-45.1385798 74.08593595 -52.83535901 66.61340627 -58.0546875 54.515625 C-61.81671188 44.50428738 -61.54363901 31.17218977 -57.2578125 21.38671875 C-51.0589029 9.62419153 -43.52363646 2.70608699 -31 -2 C-21.29739241 -4.78069353 -9.13903426 -4.061793 0 0 Z M-47.32421875 14.93359375 C-54.99198869 24.38872265 -56.1288689 35.27149197 -55 47 C-52.74800035 56.1480193 -47.28800632 64.08968864 -40 70 C-32.45715844 74.52105603 -26.50910866 76.16309047 -17.75 76.0625 C-17.00492188 76.05798828 -16.25984375 76.05347656 -15.4921875 76.04882812 C-13.6614236 76.03709246 -11.83070127 76.0191585 -10 76 C-10 75.01 -10 74.02 -10 73 C-11.56949581 71.40435995 -11.56949581 71.40435995 -13.625 69.875 C-20.91172867 63.73609231 -26.30077963 55.66868524 -27.18017578 46.02392578 C-27.94899763 33.56570505 -26.81349431 22.89546473 -18.7265625 12.859375 C-15.7246721 9.62656996 -12.42097225 6.77845462 -9 4 C-9.495 3.01 -9.495 3.01 -10 2 C-25.19671633 1.32123848 -36.24175314 3.556251 -47.32421875 14.93359375 Z " fill="#000000" transform="translate(80,11)"/>
</svg>
