<?xml version="1.0" encoding="UTF-8"?>
<svg version="1.1" xmlns="http://www.w3.org/2000/svg" width="90" height="90">
<path d="M0 0 C4.85503811 2.57956668 8.08027514 6.08848167 9.80859375 11.2734375 C10.35500421 17.40040064 10.82267719 23.38604018 7.20703125 28.6171875 C-1.78111435 39.26236553 -1.78111435 39.26236553 -8.19140625 41.2734375 C-11.87363903 41.49304362 -15.50830159 41.45038381 -19.19140625 41.2734375 C-16.61597073 35.98129784 -14.56031062 34.39279192 -9.03125 32.1484375 C-4.2201973 29.86037847 -0.25936933 26.21357152 1.80859375 21.2734375 C2.53447323 16.87335322 2.36338736 14.14261415 -0.06640625 10.3359375 C-3.21594071 7.2790364 -5.55027193 6.80709579 -9.96484375 6.86328125 C-15.4259824 7.86928047 -19.17436535 12.0738508 -22.62890625 16.1484375 C-24.56280449 20.01623398 -24.89511706 22.97724419 -25.19140625 27.2734375 C-24.68351562 26.768125 -24.175625 26.2628125 -23.65234375 25.7421875 C-17.95984536 20.36949239 -17.95984536 20.36949239 -13.69140625 19.8359375 C-12.86640625 19.9803125 -12.04140625 20.1246875 -11.19140625 20.2734375 C-10.7241317 23.24847567 -10.60678404 25.4024822 -12.32849121 27.96743774 C-14.02493037 29.85155173 -15.79022491 31.62471714 -17.61328125 33.38671875 C-18.2696759 34.04173874 -18.92607056 34.69675873 -19.60235596 35.37162781 C-20.99085652 36.7510783 -22.38662842 38.12324295 -23.7890625 39.48852539 C-25.93550242 41.58018435 -28.0569421 43.69487621 -30.17578125 45.81445312 C-31.52854064 47.15246595 -32.8826628 48.48910269 -34.23828125 49.82421875 C-35.19163361 50.7725634 -35.19163361 50.7725634 -36.16424561 51.74006653 C-36.76456604 52.32124741 -37.36488647 52.90242828 -37.98339844 53.5012207 C-38.50746277 54.01384964 -39.0315271 54.52647858 -39.57147217 55.05464172 C-41.45414306 56.47111376 -42.85876826 56.98395545 -45.19140625 57.2734375 C-46.94140625 55.8359375 -46.94140625 55.8359375 -48.19140625 54.2734375 C-46.68227667 49.29330989 -43.63478776 46.03083808 -40.19140625 42.2734375 C-48.93198317 43.29346459 -53.60670601 45.87928882 -59.12890625 52.6484375 C-60.59453107 56.26939293 -60.91462613 59.42404138 -60.19140625 63.2734375 C-58.39776714 66.0834721 -57.1725969 67.78284218 -54.19140625 69.2734375 C-49.0384384 69.89534741 -46.20673348 69.7076516 -41.94140625 66.6484375 C-37.86802561 63.25395363 -35.091412 59.63595261 -33.19140625 54.6484375 C-31.99743412 51.81275369 -30.53079927 50.24730036 -28.19140625 48.2734375 C-27.53140625 48.2734375 -26.87140625 48.2734375 -26.19140625 48.2734375 C-25.64360992 56.68819783 -26.41413982 61.95770968 -32.02734375 68.37109375 C-37.60384439 74.25739998 -41.84735005 77.37144513 -50.12890625 77.7109375 C-55.72649888 77.55833894 -58.76415246 76.6861123 -63.19140625 73.2734375 C-68.19739306 67.8722412 -68.55533988 63.41369023 -68.4609375 56.2734375 C-67.75129433 48.3748005 -61.93111032 43.27035634 -56.19140625 38.2734375 C-50.72522598 34.29803367 -44.69274163 34.81843152 -38.19140625 35.2734375 C-36.51849734 35.57387828 -34.84872374 35.89635976 -33.19140625 36.2734375 C-32.0662454 34.44059307 -32.0662454 34.44059307 -31.19140625 32.2734375 C-31.52140625 31.2834375 -31.85140625 30.2934375 -32.19140625 29.2734375 C-32.73781671 23.14647436 -33.20548969 17.16083482 -29.58984375 11.9296875 C-21.59841193 2.46497496 -13.04373029 -4.32465924 0 0 Z " fill="#FFFFFF" transform="translate(74.19140625,6.7265625)"/>
</svg>
