<?xml version="1.0" encoding="UTF-8"?>
<svg version="1.1" xmlns="http://www.w3.org/2000/svg" width="100" height="100">
<path d="M0 0 C4.57338892 1.05417804 7.82423375 4.47455586 11.25390625 7.51953125 C12.26453125 8.32390625 13.27515625 9.12828125 14.31640625 9.95703125 C14.95578125 10.47265625 15.59515625 10.98828125 16.25390625 11.51953125 C16.58390625 11.18953125 16.91390625 10.85953125 17.25390625 10.51953125 C19.44030078 10.44694179 21.62891014 10.43579342 23.81640625 10.45703125 C25.61271484 10.47056641 25.61271484 10.47056641 27.4453125 10.484375 C28.37214844 10.49597656 29.29898438 10.50757813 30.25390625 10.51953125 C30.30998047 11.49792969 30.30998047 11.49792969 30.3671875 12.49609375 C30.43292969 13.37007812 30.49867187 14.2440625 30.56640625 15.14453125 C30.62441406 16.00304688 30.68242188 16.8615625 30.7421875 17.74609375 C31.62076633 22.50785686 33.13245008 25.61019802 36.91796875 28.6796875 C38.89679801 29.95104614 40.87596648 31.22187699 42.85546875 32.4921875 C45.25390625 34.51953125 45.25390625 34.51953125 46.08984375 37.265625 C46.14398438 38.00941406 46.198125 38.75320312 46.25390625 39.51953125 C44.27390625 39.84953125 42.29390625 40.17953125 40.25390625 40.51953125 C40.25390625 57.67953125 40.25390625 74.83953125 40.25390625 92.51953125 C29.69390625 92.51953125 19.13390625 92.51953125 8.25390625 92.51953125 C8.08814345 87.59000056 7.92568172 82.66059378 7.77172852 77.73071289 C7.71834927 76.05356605 7.66302309 74.37648001 7.60571289 72.69946289 C7.52368803 70.28935859 7.44866044 67.87912264 7.375 65.46875 C7.3344474 64.34360237 7.3344474 64.34360237 7.29307556 63.19572449 C7.20131487 59.99720571 7.23285042 57.58269873 8.25390625 54.51953125 C1.98390625 54.51953125 -4.28609375 54.51953125 -10.74609375 54.51953125 C-10.74609375 67.05953125 -10.74609375 79.59953125 -10.74609375 92.51953125 C-21.63609375 92.51953125 -32.52609375 92.51953125 -43.74609375 92.51953125 C-43.74609375 75.35953125 -43.74609375 58.19953125 -43.74609375 40.51953125 C-45.72609375 40.18953125 -47.70609375 39.85953125 -49.74609375 39.51953125 C-48.94174903 32.91484147 -44.73733499 30.47448325 -39.74609375 26.51953125 C-36.5416253 24.06411289 -33.3081662 21.648286 -30.06347656 19.24633789 C-24.44336959 15.0799109 -18.96581084 10.75692324 -13.53076172 6.35253906 C-5.5410916 -0.11225047 -5.5410916 -0.11225047 0 0 Z M-10.12109375 12.39453125 C-11.37970679 13.40557259 -12.63883346 14.41597482 -13.8984375 15.42578125 C-14.8572583 16.19921875 -14.8572583 16.19921875 -15.83544922 16.98828125 C-18.75560594 19.32858574 -21.71666404 21.6140198 -24.68359375 23.89453125 C-25.22338867 24.31379883 -25.76318359 24.73306641 -26.31933594 25.16503906 C-29.09343181 27.30811002 -31.90556328 29.27941774 -34.87109375 31.14453125 C-38.46900987 34.11672282 -39.68016432 37.09127448 -40.74609375 41.51953125 C-41.06530249 45.22265639 -40.96080954 48.87089452 -40.8203125 52.58203125 C-40.79387161 53.61392578 -40.76743073 54.64582031 -40.7401886 55.70898438 C-40.65296068 58.97979111 -40.54362473 62.24942023 -40.43359375 65.51953125 C-40.37027939 67.74735467 -40.30841529 69.97521981 -40.24804688 72.203125 C-40.10020684 77.64282808 -39.92244123 83.08038015 -39.74609375 88.51953125 C-31.82609375 88.51953125 -23.90609375 88.51953125 -15.74609375 88.51953125 C-15.74609375 75.97953125 -15.74609375 63.43953125 -15.74609375 50.51953125 C-6.50609375 50.51953125 2.73390625 50.51953125 12.25390625 50.51953125 C12.25390625 63.05953125 12.25390625 75.59953125 12.25390625 88.51953125 C20.17390625 88.51953125 28.09390625 88.51953125 36.25390625 88.51953125 C36.5072868 81.27387138 36.72585614 74.04369047 36.8581543 66.79711914 C36.91330641 64.33597634 36.98825276 61.87519129 37.08374023 59.4152832 C38.41527612 45.53970292 38.41527612 45.53970292 33.98046875 33.0246582 C31.17363022 30.72071157 28.50856996 29.10871701 25.25390625 27.51953125 C24.07490559 26.6478737 22.9155283 25.74792104 21.79296875 24.8046875 C20.28694349 23.65598995 18.78085884 22.50736966 17.27392578 21.35986328 C16.72591309 20.9420459 16.17790039 20.52422852 15.61328125 20.09375 C15.06607422 19.67657715 14.51886719 19.2594043 13.95507812 18.82958984 C12.17219761 17.4566081 10.40718595 16.06289692 8.64453125 14.6640625 C8.05591309 14.20056396 7.46729492 13.73706543 6.86083984 13.25952148 C5.7290838 12.36754967 4.60159063 11.47013503 3.47900391 10.56665039 C-2.4622509 5.910321 -4.842712 8.06403044 -10.12109375 12.39453125 Z " fill="#FFFFFF" transform="translate(51.74609375,1.48046875)"/>
</svg>
