<?xml version="1.0" encoding="UTF-8"?>
<svg version="1.1" xmlns="http://www.w3.org/2000/svg" width="86" height="100">
<path d="M0 0 C5.73808936 4.33855537 9.27003377 8.6996891 10.5625 15.9375 C11.35293218 24.31608108 8.7816948 32.37622653 3.5625 38.9375 C1.61855102 41.01040874 -0.38003959 42.97356052 -2.4375 44.9375 C-1.83164062 45.02386719 -1.22578125 45.11023437 -0.6015625 45.19921875 C8.44798655 46.71675851 16.73531878 49.60404342 22.4453125 57.13671875 C26.42224079 63.54708218 25.77716264 70.67474751 25.5625 77.9375 C23.90635343 78.31968767 22.23792976 78.65145102 20.5625 78.9375 C18.37108218 76.74608218 19.11116481 71.88332578 18.94140625 68.91796875 C18.57650381 66.04765366 17.86695112 64.45662221 16.5625 61.9375 C16.5625 60.6175 16.5625 59.2975 16.5625 57.9375 C14.43508862 57.21294685 12.30501379 56.50046961 10.16796875 55.8046875 C8.53378478 55.26077619 6.90894731 54.68691503 5.30078125 54.0703125 C-6.46716642 49.87460959 -19.1555256 50.79164647 -30.4375 55.9375 C-34.69236856 58.09938666 -37.96583566 60.81805944 -40.4375 64.9375 C-40.7675 67.9075 -41.0975 70.8775 -41.4375 73.9375 C-22.6275 73.9375 -3.8175 73.9375 15.5625 73.9375 C15.5625 75.5875 15.5625 77.2375 15.5625 78.9375 C12.96785055 80.23482472 11.07199376 80.07164509 8.16650391 80.08276367 C7.03838287 80.08914352 5.91026184 80.09552338 4.74795532 80.10209656 C2.91205338 80.10376579 2.91205338 80.10376579 1.0390625 80.10546875 C-0.21379547 80.10879715 -1.46665344 80.11212555 -2.75747681 80.11555481 C-5.41224712 80.12062586 -8.06691512 80.1233947 -10.72167969 80.12280273 C-14.12019524 80.1227012 -17.51850143 80.13634347 -20.91696739 80.15357494 C-24.16078294 80.16738312 -27.40459654 80.16678415 -30.6484375 80.16796875 C-31.86832367 80.17515427 -33.08820984 80.18233978 -34.34506226 80.18974304 C-36.04670029 80.1851281 -36.04670029 80.1851281 -37.78271484 80.18041992 C-39.27924088 80.18255745 -39.27924088 80.18255745 -40.80599976 80.18473816 C-43.49641228 79.931965 -45.13669224 79.31361374 -47.4375 77.9375 C-47.54621967 75.39466766 -47.62512401 72.85654912 -47.6875 70.3125 C-47.73777344 69.24322266 -47.73777344 69.24322266 -47.7890625 68.15234375 C-47.8850782 62.91948813 -46.83340422 60.12041122 -43.4375 55.9375 C-38.32040392 50.69247652 -32.19877491 48.53099038 -25.4375 45.9375 C-23.77005219 45.27278951 -22.10311073 44.60680046 -20.4375 43.9375 C-20.83582031 43.380625 -21.23414062 42.82375 -21.64453125 42.25 C-28.81984761 31.91475114 -30.60509889 23.46622968 -29.4375 10.9375 C-28.20026789 6.55476251 -25.9847499 4.36189788 -22.375 1.5625 C-15.60823363 -2.18081757 -7.33532535 -2.26728238 0 0 Z M-23.4375 10.9375 C-25.63793063 17.53879188 -25.12850691 24.80299826 -22.35546875 31.15625 C-20.11002168 35.51337282 -17.83233912 39.54031503 -13.4375 41.9375 C-9.91096371 42.69999433 -7.86900279 41.81976643 -4.9375 39.9375 C1.1555363 35.19847177 4.25141641 29.02099364 5.47265625 21.4609375 C5.68022074 15.63108279 3.74172584 11.35257101 0.0625 6.9375 C-7.7519294 0.68595648 -17.4544996 3.84653657 -23.4375 10.9375 Z " fill="#FFFFFF" transform="translate(47.4375,11.0625)"/>
</svg>
