<?xml version="1.0" encoding="UTF-8"?>
<svg version="1.1" xmlns="http://www.w3.org/2000/svg" width="100" height="100">
<path d="M0 0 C33 0 66 0 100 0 C100 23.76 100 47.52 100 72 C67 72 34 72 0 72 C0 48.24 0 24.48 0 0 Z M4 4 C3.42358784 8.86784719 3.42358784 8.86784719 5.94921875 11.03515625 C6.85285156 11.70417969 7.75648438 12.37320312 8.6875 13.0625 C13.17544718 16.52495989 17.37781527 20.11062355 21.5 24 C26.36298093 28.55602732 31.35340681 32.87159239 36.57421875 37.01953125 C39.23780832 39.19415268 41.69088554 41.52658243 44.07421875 44.00390625 C47.32639082 45.68606422 50.4936739 45.70535423 54 45 C56.64546648 43.54458048 58.70087088 41.6418442 60.875 39.5625 C61.78052612 38.742052 61.78052612 38.742052 62.7043457 37.9050293 C64.48560997 36.28649373 66.24338474 34.64519009 68 33 C69.72601996 31.43402468 71.45480999 29.87109197 73.1875 28.3125 C73.97125 27.6009375 74.755 26.889375 75.5625 26.15625 C78.21881699 23.80643112 80.93873242 21.55334313 83.6875 19.3125 C84.595 18.57128906 85.5025 17.83007812 86.4375 17.06640625 C88.02683046 15.78476629 89.62887236 14.5185196 91.25 13.27734375 C93.40835078 11.63160672 93.40835078 11.63160672 96 9 C96 7.35 96 5.7 96 4 C65.64 4 35.28 4 4 4 Z M4 16 C4 29.53 4 43.06 4 57 C10.26605642 52.30549627 10.26605642 52.30549627 16.5 47.5703125 C17.61181641 46.71953125 17.61181641 46.71953125 18.74609375 45.8515625 C19.48988281 45.28179687 20.23367187 44.71203125 21 44.125 C21.77472656 43.53203125 22.54945312 42.9390625 23.34765625 42.328125 C25.23203494 40.88576106 27.11614525 39.44304814 29 38 C24.99099073 33.03883948 20.71996898 28.81424325 15.8125 24.75 C14.58894392 23.72503155 13.36625687 22.6990246 12.14453125 21.671875 C11.61190674 21.2294043 11.07928223 20.78693359 10.53051758 20.33105469 C9 19 9 19 7.4284668 17.33300781 C6.08193281 15.77258136 6.08193281 15.77258136 4 16 Z M87.375 22.0625 C86.11042696 23.26022623 84.84480761 24.45684876 83.578125 25.65234375 C82.65870117 26.52028564 82.65870117 26.52028564 81.72070312 27.40576172 C78.99595706 29.93024977 76.14694125 32.29975037 73.2578125 34.6328125 C71.66147173 36.05833786 71.66147173 36.05833786 72 39 C73.92170423 40.69579856 75.80681398 42.19062022 77.875 43.6875 C79.06582727 44.57324742 80.2559227 45.45997952 81.4453125 46.34765625 C82.0424707 46.78996582 82.63962891 47.23227539 83.25488281 47.68798828 C86.63641057 50.23028405 89.89481296 52.92705703 93.171875 55.6015625 C94.74876584 57.10126268 94.74876584 57.10126268 96 57 C96 43.47 96 29.94 96 16 C92.35373669 16 89.90622364 19.64067056 87.375 22.0625 Z M26.875 45.25 C23.23841083 48.3837902 19.55447361 51.36583811 15.6484375 54.16015625 C14.91898926 54.68512695 14.18954102 55.21009766 13.43798828 55.75097656 C11.99527936 56.78060904 10.54321331 57.79727195 9.08154297 58.79980469 C8.42041504 59.27450195 7.75928711 59.74919922 7.078125 60.23828125 C6.18722168 60.8576355 6.18722168 60.8576355 5.27832031 61.48950195 C3.4616641 63.30630991 3.4616641 63.30630991 4 68 C34.36 68 64.72 68 96 68 C96 66.35 96 64.7 96 63 C93.64675422 60.59531318 93.64675422 60.59531318 90.4375 58.4375 C89.25381852 57.57612537 88.07158878 56.71275315 86.890625 55.84765625 C86.26220703 55.39277832 85.63378906 54.93790039 84.98632812 54.46923828 C81.47412268 51.8713459 78.08675213 49.11799118 74.6875 46.375 C73.39980584 45.34106331 72.11205117 44.30720197 70.82421875 43.2734375 C69.89222656 42.52320313 68.96023437 41.77296875 68 41 C64.97123236 42.39893752 62.519891 44.10473271 59.875 46.125 C55.60324542 48.99629468 52.40803384 49.79374988 47.2890625 49.4609375 C43.83773937 48.76596117 41.67564887 47.24007812 39 45 C33.22042344 40.27125554 32.55252928 40.33050596 26.875 45.25 Z " fill="#FFFFFF" transform="translate(0,14)"/>
</svg>
