<?xml version="1.0" encoding="UTF-8"?>
<svg version="1.1" xmlns="http://www.w3.org/2000/svg" width="75" height="74">
<path d="M0 0 C0.69867187 -0.00322266 1.39734375 -0.00644531 2.1171875 -0.00976562 C6.15278185 0.03211318 9.43984031 0.35572105 13 2.3125 C16.32926175 7.30639263 16.12117861 11.8966701 16.09765625 17.80078125 C16.0962413 18.50397995 16.09482635 19.20717865 16.09336853 19.9316864 C16.08780109 22.16283544 16.07525475 24.39388164 16.0625 26.625 C16.05748079 28.14387875 16.05291862 29.66275909 16.04882812 31.18164062 C16.03784236 34.89196012 16.02060034 38.60222001 16 42.3125 C17.50566528 42.28893433 17.50566528 42.28893433 19.04174805 42.26489258 C22.77831955 42.21044886 26.51485621 42.17609774 30.25170898 42.14770508 C31.86667789 42.13265124 33.48160613 42.11220352 35.09643555 42.08618164 C37.42246555 42.04964714 39.74795341 42.03273985 42.07421875 42.01953125 C43.15107185 41.99630547 43.15107185 41.99630547 44.24967957 41.97261047 C48.69938038 41.97112844 51.45261168 42.60020044 55 45.3125 C58.33367715 49.37973138 58.42926251 53.2496776 58.3125 58.3125 C58.31572266 59.01117188 58.31894531 59.70984375 58.32226562 60.4296875 C58.28052016 64.45243193 58.21317526 67.89823513 56 71.3125 C49.57512619 75.04081299 43.30598597 74.74794587 36.0234375 74.7109375 C34.78002594 74.71380768 33.53661438 74.71667786 32.25552368 74.71963501 C28.96610552 74.72219089 25.67711749 74.71017502 22.38775635 74.69335938 C20.37360112 74.68749593 18.35983695 74.69335174 16.34570312 74.70361328 C12.46726321 74.72214086 8.58940152 74.71990399 4.7109375 74.7109375 C3.51189789 74.71701019 2.31285828 74.72308289 1.07748413 74.7293396 C-0.04072723 74.71988312 -1.1589386 74.71042664 -2.31103516 74.70068359 C-3.29141754 74.69829681 -4.27179993 74.69591003 -5.28189087 74.69345093 C-9.64880462 74.08141522 -12.11287614 72.46551728 -14.78823853 68.98828125 C-16.16976618 65.93762659 -16.38024488 63.8400231 -16.38818359 60.5 C-16.40236832 58.78296875 -16.40236832 58.78296875 -16.4168396 57.03125 C-16.40773056 55.19046875 -16.40773056 55.19046875 -16.3984375 53.3125 C-16.40130768 52.0440625 -16.40417786 50.775625 -16.40713501 49.46875 C-16.40917518 46.78874895 -16.40516185 44.10957075 -16.39111328 41.4296875 C-16.37402141 38.00317434 -16.38386824 34.57736623 -16.40183067 31.15087891 C-16.41530808 27.87139436 -16.40585823 24.59199377 -16.3984375 21.3125 C-16.40451019 20.0853125 -16.41058289 18.858125 -16.4168396 17.59375 C-16.40738312 16.4490625 -16.39792664 15.304375 -16.38818359 14.125 C-16.38579681 13.12082031 -16.38341003 12.11664063 -16.38095093 11.08203125 C-15.79878226 6.84963753 -14.08896574 4.20506299 -10.8125 1.51953125 C-7.17706953 -0.04067433 -3.8828121 -0.08954825 0 0 Z M-8 9.3125 C-9.36088419 14.70741445 -9.12756619 20.21745752 -9.09765625 25.7421875 C-9.0962413 26.73251984 -9.09482635 27.72285217 -9.09336853 28.74319458 C-9.08779252 31.89132773 -9.07524442 35.03938852 -9.0625 38.1875 C-9.0574819 40.32812397 -9.05291954 42.46874906 -9.04882812 44.609375 C-9.03783094 49.84377449 -9.02111675 55.07813207 -9 60.3125 C-7.72268572 59.36597277 -6.44694936 58.41731593 -5.171875 57.46777344 C-4.10598145 56.67569489 -4.10598145 56.67569489 -3.01855469 55.86761475 C-0.49993335 53.92724364 1.7605726 51.81747898 4 49.5625 C4.763125 48.80453125 5.52625 48.0465625 6.3125 47.265625 C8.21792582 45.49046329 8.21792582 45.49046329 8 43.3125 C5.03 43.3125 2.06 43.3125 -1 43.3125 C-1 41.3325 -1 39.3525 -1 37.3125 C2.3 37.3125 5.6 37.3125 9 37.3125 C9 35.3325 9 33.3525 9 31.3125 C5.7 31.3125 2.4 31.3125 -1 31.3125 C-1 29.3325 -1 27.3525 -1 25.3125 C2.3 25.3125 5.6 25.3125 9 25.3125 C9 23.3325 9 21.3525 9 19.3125 C5.7 19.3125 2.4 19.3125 -1 19.3125 C-1 17.3325 -1 15.3525 -1 13.3125 C1.97 13.3125 4.94 13.3125 8 13.3125 C7.67 11.6625 7.34 10.0125 7 8.3125 C-0.84443561 6.83164344 -0.84443561 6.83164344 -8 9.3125 Z M21 49.3125 C21 52.6125 21 55.9125 21 59.3125 C19.02 59.3125 17.04 59.3125 15 59.3125 C15 56.3425 15 53.3725 15 50.3125 C11.6491538 51.9879231 10.06524757 52.99848781 7.546875 55.53515625 C6.61875 56.46618164 6.61875 56.46618164 5.671875 57.41601562 C4.72054688 58.38571289 4.72054688 58.38571289 3.75 59.375 C3.1003125 60.02533203 2.450625 60.67566406 1.78125 61.34570312 C-1.36232703 63.95246108 -1.36232703 63.95246108 -3 67.3125 C3.74435205 67.36324705 10.48865477 67.3982534 17.2331543 67.42236328 C19.52711833 67.43241528 21.82106957 67.4460589 24.11499023 67.46337891 C27.41393188 67.48766209 30.71270397 67.49899123 34.01171875 67.5078125 C35.03585373 67.51813507 36.05998871 67.52845764 37.11515808 67.53909302 C38.55608574 67.53931961 38.55608574 67.53931961 40.02612305 67.53955078 C41.28854073 67.54621262 41.28854073 67.54621262 42.57646179 67.55300903 C45.33648004 67.27910812 47.48143665 66.44665841 50 65.3125 C51.1570975 58.64865483 51.1570975 58.64865483 49.75 52.1875 C49.1725 51.56875 48.595 50.95 48 50.3125 C47.01 50.3125 46.02 50.3125 45 50.3125 C45 53.2825 45 56.2525 45 59.3125 C43.02 59.3125 41.04 59.3125 39 59.3125 C39 56.0125 39 52.7125 39 49.3125 C37.02 49.3125 35.04 49.3125 33 49.3125 C33 52.6125 33 55.9125 33 59.3125 C31.02 59.3125 29.04 59.3125 27 59.3125 C27 56.0125 27 52.7125 27 49.3125 C25.02 49.3125 23.04 49.3125 21 49.3125 Z " fill="#191919" transform="translate(17,-0.3125)"/>
</svg>
