<?xml version="1.0" encoding="UTF-8"?>
<svg version="1.1" xmlns="http://www.w3.org/2000/svg" width="90" height="90">
<path d="M0 0 C0.90951416 -0.00478363 1.81902832 -0.00956726 2.75610352 -0.01449585 C4.67238095 -0.01788695 6.58871686 -0.00873996 8.50488281 0.01220703 C11.42905324 0.03898515 14.34938569 0.01243366 17.2734375 -0.01953125 C19.14063343 -0.01622701 21.00782698 -0.00982048 22.875 0 C23.74390869 -0.01012115 24.61281738 -0.02024231 25.50805664 -0.03067017 C29.67345106 0.04928816 32.56235178 0.31483267 35.90283203 2.93554688 C38.14545887 5.3496865 39.43147612 6.9437554 40.5546875 9.984375 C40.85117188 10.76683594 41.14765625 11.54929687 41.453125 12.35546875 C41.73671875 13.15855469 42.0203125 13.96164063 42.3125 14.7890625 C42.61929688 15.59988281 42.92609375 16.41070312 43.2421875 17.24609375 C45.4375 23.1753976 45.4375 23.1753976 45.4375 26.6640625 C46.9225 27.1590625 46.9225 27.1590625 48.4375 27.6640625 C50.89069446 31.0840079 50.69556139 34.44577543 50.703125 38.546875 C50.70503845 39.20235321 50.7069519 39.85783142 50.70892334 40.53317261 C50.71028003 41.91323228 50.70661971 43.29330493 50.69824219 44.67333984 C50.68750018 46.78902634 50.69817185 48.90387043 50.7109375 51.01953125 C50.70961649 52.36198104 50.7070553 53.70443031 50.703125 55.046875 C50.70086914 56.26777832 50.69861328 57.48868164 50.69628906 58.74658203 C50.4375 61.6640625 50.4375 61.6640625 48.4375 63.6640625 C46.5625 63.9296875 46.5625 63.9296875 44.4375 63.9140625 C43.73625 63.91921875 43.035 63.924375 42.3125 63.9296875 C40.4375 63.6640625 40.4375 63.6640625 38.4375 61.6640625 C38.4375 59.3540625 38.4375 57.0440625 38.4375 54.6640625 C20.6175 54.6640625 2.7975 54.6640625 -15.5625 54.6640625 C-15.5625 56.9740625 -15.5625 59.2840625 -15.5625 61.6640625 C-17.5625 63.6640625 -17.5625 63.6640625 -19.4375 63.9296875 C-20.13875 63.92453125 -20.84 63.919375 -21.5625 63.9140625 C-22.26375 63.91921875 -22.965 63.924375 -23.6875 63.9296875 C-25.5625 63.6640625 -25.5625 63.6640625 -27.5625 61.6640625 C-27.96200616 57.44350191 -27.89148801 53.20782056 -27.87817383 48.97045898 C-27.87502724 46.86974575 -27.89841939 44.7704595 -27.92382812 42.66992188 C-27.92610261 41.32812677 -27.92680392 39.98632789 -27.92578125 38.64453125 C-27.92876221 37.42660889 -27.93174316 36.20868652 -27.93481445 34.95385742 C-27.53272497 31.40096841 -26.74450513 29.47443723 -24.5625 26.6640625 C-23.9025 26.6640625 -23.2425 26.6640625 -22.5625 26.6640625 C-22.39234375 25.98601563 -22.2221875 25.30796875 -22.046875 24.609375 C-20.78856923 19.77694541 -19.44177497 14.98922393 -17.75 10.2890625 C-17.47542969 9.51820312 -17.20085938 8.74734375 -16.91796875 7.953125 C-12.67051525 0.78019201 -7.7676463 -0.09047849 0 0 Z M-9.5625 9.6640625 C-11.01630004 12.5806122 -11.01630004 12.5806122 -11.875 15.8515625 C-12.20113281 16.93824219 -12.52726562 18.02492188 -12.86328125 19.14453125 C-13.09402344 19.97597656 -13.32476562 20.80742188 -13.5625 21.6640625 C-12.56838545 22.87886534 -12.56838545 22.87886534 -10.61997986 22.78431702 C-9.76948563 22.78209641 -8.91899139 22.77987579 -8.04272461 22.77758789 C-7.08180405 22.77751236 -6.12088348 22.77743683 -5.13084412 22.77735901 C-4.086064 22.77219772 -3.04128387 22.76703644 -1.96484375 22.76171875 C-0.36885094 22.75959633 -0.36885094 22.75959633 1.25938416 22.75743103 C4.67295083 22.75181314 8.086453 22.73925761 11.5 22.7265625 C13.80794176 22.72154981 16.11588455 22.7169865 18.42382812 22.71289062 C24.09507426 22.7018379 29.76628253 22.68508237 35.4375 22.6640625 C36.71619062 20.64361818 36.71619062 20.64361818 35.8359375 18.16796875 C35.49820313 17.19730469 35.16046875 16.22664063 34.8125 15.2265625 C34.49023438 14.25847656 34.16796875 13.29039063 33.8359375 12.29296875 C32.09215947 9.01486088 30.77960846 8.24867799 27.4375 6.6640625 C23.94266448 6.20445908 23.94266448 6.20445908 20.125 6.265625 C19.43365967 6.26275482 18.74231934 6.25988464 18.0300293 6.25692749 C16.57437313 6.25489411 15.11868919 6.26037312 13.66308594 6.27294922 C11.44403575 6.28901518 9.22680653 6.27307789 7.0078125 6.25390625 C5.58853768 6.25588881 4.16926398 6.25973276 2.75 6.265625 C1.46738281 6.26900879 0.18476562 6.27239258 -1.13671875 6.27587891 C-4.7917993 6.69004496 -6.67860599 7.41801955 -9.5625 9.6640625 Z M0.4375 34.6640625 C0.4375 35.9840625 0.4375 37.3040625 0.4375 38.6640625 C2.70823079 39.7994279 3.98033279 39.79298662 6.5 39.796875 C7.29664063 39.79816406 8.09328125 39.79945312 8.9140625 39.80078125 C10.16316406 39.79498047 10.16316406 39.79498047 11.4375 39.7890625 C12.27023438 39.79292969 13.10296875 39.79679687 13.9609375 39.80078125 C14.75757813 39.79949219 15.55421875 39.79820313 16.375 39.796875 C17.47134766 39.79518311 17.47134766 39.79518311 18.58984375 39.79345703 C20.53316053 39.77608045 20.53316053 39.77608045 22.4375 38.6640625 C22.4375 37.3440625 22.4375 36.0240625 22.4375 34.6640625 C20.16676921 33.5286971 18.89466721 33.53513838 16.375 33.53125 C15.57835937 33.52996094 14.78171875 33.52867188 13.9609375 33.52734375 C12.71183594 33.53314453 12.71183594 33.53314453 11.4375 33.5390625 C10.60476562 33.53519531 9.77203125 33.53132813 8.9140625 33.52734375 C8.11742187 33.52863281 7.32078125 33.52992187 6.5 33.53125 C5.40365234 33.53294189 5.40365234 33.53294189 4.28515625 33.53466797 C2.34183947 33.55204455 2.34183947 33.55204455 0.4375 34.6640625 Z M-17.5625 35.6640625 C-17.72916667 38.1640625 -17.72916667 38.1640625 -17.5625 40.6640625 C-16.5029123 41.94728797 -16.5029123 41.94728797 -14.0625 41.7890625 C-11.6220877 41.94728797 -11.6220877 41.94728797 -10.5625 40.6640625 C-10.39583333 38.1640625 -10.39583333 38.1640625 -10.5625 35.6640625 C-11.6220877 34.38083703 -11.6220877 34.38083703 -14.0625 34.5390625 C-16.5029123 34.38083703 -16.5029123 34.38083703 -17.5625 35.6640625 Z M33.4375 35.6640625 C33.27083333 38.1640625 33.27083333 38.1640625 33.4375 40.6640625 C34.4970877 41.94728797 34.4970877 41.94728797 36.9375 41.7890625 C39.3779123 41.94728797 39.3779123 41.94728797 40.4375 40.6640625 C40.60416667 38.1640625 40.60416667 38.1640625 40.4375 35.6640625 C39.3779123 34.38083703 39.3779123 34.38083703 36.9375 34.5390625 C34.4970877 34.38083703 34.4970877 34.38083703 33.4375 35.6640625 Z " fill="#1A1A1A" transform="translate(33.5625,11.3359375)"/>
</svg>
