<?xml version="1.0" encoding="UTF-8"?>
<svg version="1.1" xmlns="http://www.w3.org/2000/svg" width="40" height="40">
<path d="M0 0 C0.99 0 1.98 0 3 0 C3.33 3.63 3.66 7.26 4 11 C9.94 11 15.88 11 22 11 C20.68 9.68 19.36 8.36 18 7 C18.33 6.01 18.66 5.02 19 4 C22.21524305 5.40844718 24.32183868 7.10344786 26.75 9.625 C27.36359375 10.25664062 27.9771875 10.88828125 28.609375 11.5390625 C29.06828125 12.02117188 29.5271875 12.50328125 30 13 C28.59155282 16.21524305 26.89655214 18.32183868 24.375 20.75 C23.74335938 21.36359375 23.11171875 21.9771875 22.4609375 22.609375 C21.97882812 23.06828125 21.49671875 23.5271875 21 24 C20.01 23.67 19.02 23.34 18 23 C19.3024333 20.09457188 20.70886268 18.1907039 23 16 C22.44538086 15.9906543 21.89076172 15.98130859 21.31933594 15.97167969 C18.79533519 15.91784278 16.27316186 15.83422746 13.75 15.75 C12.87730469 15.73582031 12.00460938 15.72164062 11.10546875 15.70703125 C4.71163557 15.46299182 4.71163557 15.46299182 1.40625 13.3125 C-0.35879821 10.40997628 -0.41062801 8.62318818 -0.25 5.25 C-0.21390625 4.26515625 -0.1778125 3.2803125 -0.140625 2.265625 C-0.09421875 1.51796875 -0.0478125 0.7703125 0 0 Z " fill="#808080" transform="translate(5,8)"/>
</svg>
