<?xml version="1.0" encoding="UTF-8"?>
<svg version="1.1" xmlns="http://www.w3.org/2000/svg" width="100" height="100">
<path d="M0 0 C5.99278157 6.12898115 9.67878974 13.82193671 9.78125 22.44140625 C9.2652323 31.71682443 6.27366022 39.7440865 -0.671875 46.1171875 C-7.06336794 51.26081753 -14.74868925 53.21663689 -22.875 52.75 C-30.84662775 51.69242314 -37.59441093 48.59662518 -43.25 42.8125 C-48.82194061 34.73318612 -50.94989873 27.30031256 -49.7890625 17.5546875 C-48.29902318 9.97492228 -44.68815494 2.87329651 -38.2109375 -1.59375 C-25.18090044 -9.29535266 -12.52964564 -8.43341534 0 0 Z M-36.625 10.3125 C-40.34105764 16.02951175 -41.07261573 21.06705101 -40.25 27.8125 C-38.15565301 34.66672651 -34.1116256 38.55988507 -28 42.125 C-21.2668847 43.80827882 -15.08511817 43.55876453 -9.00390625 40.08203125 C-4.74728071 37.00095486 -1.53547305 32.95439221 -0.25 27.8125 C0.52223453 20.95743349 -0.14869131 15.4786157 -4.25 9.8125 C-8.04868 5.72241441 -12.31599483 3.22913751 -17.86328125 2.44140625 C-26.17820291 2.23684233 -30.92127029 4.30857399 -36.625 10.3125 Z " fill="#000000" transform="translate(70.25,27.1875)"/>
<path d="M0 0 C3.3 0 6.6 0 10 0 C10 4.29 10 8.58 10 13 C6.7 13 3.4 13 0 13 C0 8.71 0 4.42 0 0 Z " fill="#000000" transform="translate(45,87)"/>
<path d="M0 0 C4.29 0 8.58 0 13 0 C13 3.3 13 6.6 13 10 C8.71 10 4.42 10 0 10 C0 6.7 0 3.4 0 0 Z " fill="#000000" transform="translate(87,45)"/>
<path d="M0 0 C4.29 0 8.58 0 13 0 C13 3.3 13 6.6 13 10 C8.71 10 4.42 10 0 10 C0 6.7 0 3.4 0 0 Z " fill="#000000" transform="translate(0,45)"/>
<path d="M0 0 C3.3 0 6.6 0 10 0 C10 4.29 10 8.58 10 13 C6.7 13 3.4 13 0 13 C0 8.71 0 4.42 0 0 Z " fill="#000000" transform="translate(45,0)"/>
<path d="M0 0 C7.57142857 6.28571429 7.57142857 6.28571429 10 10 C7.69 11.98 5.38 13.96 3 16 C0.03 13.03 -2.94 10.06 -6 7 C-4.02 4.69 -2.04 2.38 0 0 Z " fill="#000000" transform="translate(79,73)"/>
<path d="M0 0 C2.31 1.98 4.62 3.96 7 6 C0.71428571 13.57142857 0.71428571 13.57142857 -3 16 C-4.98 13.69 -6.96 11.38 -9 9 C-6.03 6.03 -3.06 3.06 0 0 Z " fill="#000000" transform="translate(20,73)"/>
<path d="M0 0 C2.31 1.98 4.62 3.96 7 6 C0.71428571 13.57142857 0.71428571 13.57142857 -3 16 C-4.98 13.69 -6.96 11.38 -9 9 C-6.03 6.03 -3.06 3.06 0 0 Z " fill="#000000" transform="translate(82,11)"/>
<path d="M0 0 C7.57142857 6.28571429 7.57142857 6.28571429 10 10 C7.69 11.98 5.38 13.96 3 16 C0.03 13.03 -2.94 10.06 -6 7 C-4.02 4.69 -2.04 2.38 0 0 Z " fill="#000000" transform="translate(17,11)"/>
</svg>
