<?xml version="1.0" encoding="UTF-8"?>
<svg version="1.1" xmlns="http://www.w3.org/2000/svg" width="100" height="100">
<path d="M0 0 C31.68 0 63.36 0 96 0 C95.01 1.32 94.02 2.64 93 4 C92.75448908 6.79768256 92.63890119 9.45374634 92.625 12.25 C92.354798 20.30932702 91.07237516 25.04147619 85.18359375 30.765625 C82.89350694 32.8118821 80.75222608 34.62388696 78 36 C79.32 36.66 80.64 37.32 82 38 C82 39.32 82 40.64 82 42 C78.29706315 42.33663062 76.60465619 42.47736015 73.625 40.125 C72 38 72 38 72 36 C56.16 36 40.32 36 24 36 C23.01 38.475 23.01 38.475 22 41 C19.29120665 42.35439668 16.99066732 42.06501451 14 42 C14 40.68 14 39.36 14 38 C15.32 37.34 16.64 36.68 18 36 C17.46890625 35.62488281 16.9378125 35.24976563 16.390625 34.86328125 C11.11619108 31.04220413 6.42078244 27.23070585 4 21 C3.71923945 17.38920604 3.58599505 13.81796048 3.52148438 10.19921875 C3.34919164 5.40023564 3.01074458 4.01432611 0 0 Z " fill="#191919" transform="translate(2,54)"/>
<path d="M0 0 C33 0 66 0 100 0 C100 2.64 100 5.28 100 8 C67 8 34 8 0 8 C0 5.36 0 2.72 0 0 Z " fill="#191919" transform="translate(0,42)"/>
<path d="M0 0 C3.11709136 1.69624851 5.38929088 3.77858175 7 7 C7.08586809 9.32416296 7.10711043 11.65083307 7.09765625 13.9765625 C7.0962413 14.66181 7.09482635 15.3470575 7.09336853 16.05307007 C7.08776675 18.24375761 7.07521406 20.4343433 7.0625 22.625 C7.05748522 24.10937352 7.05292228 25.59374865 7.04882812 27.078125 C7.03779677 30.71878315 7.02053099 34.35938164 7 38 C5.68 38 4.36 38 3 38 C2.98018066 37.23856689 2.96036133 36.47713379 2.93994141 35.69262695 C2.84450078 32.23224528 2.73489788 28.77245145 2.625 25.3125 C2.5940625 24.11431641 2.563125 22.91613281 2.53125 21.68164062 C2.49257812 20.52470703 2.45390625 19.36777344 2.4140625 18.17578125 C2.36693115 16.58117065 2.36693115 16.58117065 2.31884766 14.9543457 C1.99285294 11.93377752 1.36672351 9.70642827 0 7 C-4.56109872 4.71945064 -10.15621644 6.22499463 -15 7 C-15 4 -15 4 -13.125 1.8125 C-8.73511879 -0.7336311 -4.96320024 -0.94348375 0 0 Z " fill="#191919" transform="translate(93,0)"/>
<path d="M0 0 C3.125 2.0625 3.125 2.0625 5 5 C5 7.31 5 9.62 5 12 C-1.6 12 -8.2 12 -15 12 C-15 5 -15 5 -13.125 2.0625 C-8.74948817 -0.82533781 -5.10170093 -1.02870363 0 0 Z " fill="#191919" transform="translate(83,10)"/>
<path d="M0 0 C1.32 0 2.64 0 4 0 C4 1.32 4 2.64 4 4 C2.68 4 1.36 4 0 4 C0 2.68 0 1.36 0 0 Z " fill="#191919" transform="translate(86,36)"/>
<path d="M0 0 C1.32 0 2.64 0 4 0 C4 1.32 4 2.64 4 4 C2.68 4 1.36 4 0 4 C0 2.68 0 1.36 0 0 Z " fill="#191919" transform="translate(76,36)"/>
<path d="M0 0 C1.32 0 2.64 0 4 0 C4 1.32 4 2.64 4 4 C2.68 4 1.36 4 0 4 C0 2.68 0 1.36 0 0 Z " fill="#191919" transform="translate(66,36)"/>
<path d="M0 0 C1.32 0 2.64 0 4 0 C4 1.32 4 2.64 4 4 C2.68 4 1.36 4 0 4 C0 2.68 0 1.36 0 0 Z " fill="#191919" transform="translate(84,30)"/>
<path d="M0 0 C1.32 0 2.64 0 4 0 C4 1.32 4 2.64 4 4 C2.68 4 1.36 4 0 4 C0 2.68 0 1.36 0 0 Z " fill="#191919" transform="translate(76,30)"/>
<path d="M0 0 C1.32 0 2.64 0 4 0 C4 1.32 4 2.64 4 4 C2.68 4 1.36 4 0 4 C0 2.68 0 1.36 0 0 Z " fill="#191919" transform="translate(68,30)"/>
<path d="M0 0 C1.32 0 2.64 0 4 0 C4 1.32 4 2.64 4 4 C2.68 4 1.36 4 0 4 C0 2.68 0 1.36 0 0 Z " fill="#191919" transform="translate(82,24)"/>
<path d="M0 0 C1.32 0 2.64 0 4 0 C4 1.32 4 2.64 4 4 C2.68 4 1.36 4 0 4 C0 2.68 0 1.36 0 0 Z " fill="#191919" transform="translate(76,24)"/>
<path d="M0 0 C1.32 0 2.64 0 4 0 C4 1.32 4 2.64 4 4 C2.68 4 1.36 4 0 4 C0 2.68 0 1.36 0 0 Z " fill="#191919" transform="translate(70,24)"/>
</svg>
