<?xml version="1.0" encoding="UTF-8"?>
<svg version="1.1" xmlns="http://www.w3.org/2000/svg" width="100" height="100">
<path d="M0 0 C21.78 0 43.56 0 66 0 C66 8.15789474 66 8.15789474 62 13 C56.32916829 18.62422214 51.53834817 20.22793345 43.72502136 20.22659302 C42.7883815 20.21627045 41.85174164 20.20594788 40.88671875 20.1953125 C39.91716751 20.1924826 38.94761627 20.18965271 37.94868469 20.18673706 C34.86149595 20.17556991 31.77460061 20.15047152 28.6875 20.125 C26.59049899 20.11496573 24.49349342 20.10584066 22.39648438 20.09765625 C17.2642104 20.07564188 12.1321549 20.04113571 7 20 C6.29363403 18.32949585 6.29363403 18.32949585 5.57299805 16.62524414 C4.43434638 14.00102582 3.35896521 11.80163647 1.8125 9.4375 C0 6 0 6 0 0 Z " fill="#191919" transform="translate(6,60)"/>
<path d="M0 0 C8.58 0 17.16 0 26 0 C26 12.54 26 25.08 26 38 C17.42 38 8.84 38 0 38 C0 25.46 0 12.92 0 0 Z " fill="#191919" transform="translate(6,6)"/>
<path d="M0 0 C8.97920777 -0.02312566 17.95840537 -0.04091623 26.93763638 -0.05181217 C31.10662828 -0.05704051 35.27559987 -0.06413726 39.44458008 -0.07543945 C43.46457686 -0.08627008 47.48455405 -0.09227721 51.50456429 -0.09487724 C53.04162975 -0.09673118 54.57869409 -0.10035119 56.11575127 -0.10573006 C58.26135487 -0.11294284 60.40687655 -0.11399084 62.55249023 -0.11352539 C63.77604721 -0.115746 64.99960419 -0.11796661 66.26023865 -0.12025452 C69 0 69 0 70 1 C70.125 4 70.125 4 70 7 C69 8 69 8 66.26023865 8.12025452 C65.03668167 8.11803391 63.81312469 8.11581329 62.55249023 8.11352539 C61.54277664 8.11374443 61.54277664 8.11374443 60.51266479 8.1139679 C58.27794216 8.11326878 56.0433019 8.10547652 53.80859375 8.09765625 C52.26302638 8.09579206 50.71745843 8.09436816 49.17189026 8.09336853 C45.09642923 8.0895434 41.02100363 8.07971317 36.94555664 8.06866455 C32.78988118 8.05845032 28.63420001 8.05387089 24.47851562 8.04882812 C16.31899413 8.03809089 8.15950147 8.02101454 0 8 C0 5.36 0 2.72 0 0 Z " fill="#191919" transform="translate(6,48)"/>
<path d="M0 0 C5.49918389 -0.12352165 10.99756218 -0.2143009 16.49780273 -0.2746582 C18.36903954 -0.29981578 20.24017795 -0.33394593 22.11108398 -0.37719727 C24.79956303 -0.43779677 27.48674436 -0.46619603 30.17578125 -0.48828125 C31.01337479 -0.51408768 31.85096832 -0.5398941 32.71394348 -0.56648254 C35.0793457 -0.56762695 35.0793457 -0.56762695 39 0 C42.22667817 3.48856018 42 5.10330091 42 10 C28.14 10 14.28 10 0 10 C0 6.7 0 3.4 0 0 Z " fill="#1A1A1A" transform="translate(14,84)"/>
</svg>
