<?xml version="1.0" encoding="UTF-8"?>
<svg version="1.1" xmlns="http://www.w3.org/2000/svg" width="100" height="100">
<path d="M0 0 C0.70125 0.00515625 1.4025 0.0103125 2.125 0.015625 C2.82625 0.01046875 3.5275 0.0053125 4.25 0 C6.125 0.265625 6.125 0.265625 8.125 2.265625 C8.35205078 4.42041016 8.35205078 4.42041016 8.3203125 7.0546875 C8.31064453 8.46621094 8.31064453 8.46621094 8.30078125 9.90625 C8.28402344 10.89109375 8.26726563 11.8759375 8.25 12.890625 C8.24097656 13.88320313 8.23195313 14.87578125 8.22265625 15.8984375 C8.19904116 18.35440634 8.16610799 20.80989668 8.125 23.265625 C8.785 22.935625 9.445 22.605625 10.125 22.265625 C22.11134035 21.32823172 22.11134035 21.32823172 27.75 23.953125 C30.6859038 26.81176818 33.28268722 29.58099943 35.125 33.265625 C35.455 30.955625 35.785 28.645625 36.125 26.265625 C43.86611444 26.13884402 51.60696116 26.05128088 59.34887695 25.9909668 C61.98244227 25.96582343 64.61593782 25.93170416 67.24926758 25.88842773 C71.03484309 25.8277729 74.81949598 25.7994123 78.60546875 25.77734375 C80.3713459 25.73863411 80.3713459 25.73863411 82.17289734 25.69914246 C90.20926657 25.6963853 90.20926657 25.6963853 94.37695312 28.28710938 C96.59348395 32.06387977 96.76169404 35.15570465 96.61328125 39.41015625 C96.60620651 40.17994308 96.59913177 40.94972992 96.59184265 41.74284363 C96.56396925 44.18894803 96.50125137 46.63271884 96.4375 49.078125 C96.41240768 50.74150327 96.38959613 52.40491762 96.36914062 54.06835938 C96.31416671 58.13500657 96.22794927 62.19992089 96.125 66.265625 C92.165 66.265625 88.205 66.265625 84.125 66.265625 C84.125 62.965625 84.125 59.665625 84.125 56.265625 C59.045 56.265625 33.965 56.265625 8.125 56.265625 C8.125 59.565625 8.125 62.865625 8.125 66.265625 C4.165 66.265625 0.205 66.265625 -3.875 66.265625 C-3.92013676 57.95560087 -3.95685017 49.64567161 -3.97862434 41.33555794 C-3.98907343 37.47707703 -4.003253 33.61868415 -4.02587891 29.76025391 C-4.0475674 26.03850308 -4.05956014 22.31683706 -4.06475449 18.59502792 C-4.06845745 17.17321309 -4.07568819 15.75140303 -4.08646011 14.32962418 C-4.10092119 12.34235386 -4.10181646 10.35499869 -4.10205078 8.36767578 C-4.106492 7.23516388 -4.11093323 6.10265198 -4.11550903 4.93582153 C-3.83380976 1.80831983 -3.26122962 0.46200753 0 0 Z M12.125 27.265625 C13.44013097 31.21101791 14.83087625 33.68374423 18.125 36.265625 C22.51217851 37.94072952 25.59095182 38.63957899 30.125 37.265625 C29.27153416 33.5103753 28.44421746 31.56888159 25.625 28.890625 C21.00443414 26.74536228 17.13278154 26.90934015 12.125 27.265625 Z M40.125 30.265625 C40.125 32.905625 40.125 35.545625 40.125 38.265625 C57.285 38.265625 74.445 38.265625 92.125 38.265625 C90.85099739 32.53309666 90.85099739 32.53309666 88.29229736 30.90481567 C85.89977811 30.19920138 83.94272332 30.02486828 81.44824219 30.03857422 C80.52758972 30.03872528 79.60693726 30.03887634 78.65838623 30.03903198 C77.67283752 30.04935455 76.68728882 30.05967712 75.671875 30.0703125 C74.65651672 30.0731424 73.64115845 30.07597229 72.59503174 30.07888794 C69.35490084 30.09007499 66.11504724 30.11517709 62.875 30.140625 C60.67708733 30.1506567 58.47917032 30.15978222 56.28125 30.16796875 C50.89573886 30.19000949 45.51038924 30.22347249 40.125 30.265625 Z M8.125 33.265625 C8.125 34.915625 8.125 36.565625 8.125 38.265625 C9.445 37.935625 10.765 37.605625 12.125 37.265625 C10.805 35.945625 9.485 34.625625 8.125 33.265625 Z " fill="#191919" transform="translate(3.875,17.734375)"/>
</svg>
