<?xml version="1.0" encoding="UTF-8"?>
<svg version="1.1" xmlns="http://www.w3.org/2000/svg" width="100" height="100">
<path d="M0 0 C4.32573571 4.56605436 6.05979708 9.00933665 6.3125 15.25 C6.02027263 24.90973794 2.80884615 31.28400175 -4 38 C-4.804375 38.825 -5.60875 39.65 -6.4375 40.5 C-6.953125 40.995 -7.46875 41.49 -8 42 C-6.72125 42.0825 -5.4425 42.165 -4.125 42.25 C3.97736555 43.16869342 11.33622961 46.06652625 17 52 C22.14323452 58.60584183 21.40525121 65.98503162 21 74 C20.01 74.495 20.01 74.495 19 75 C18.34 74.67 17.68 74.34 17 74 C16.63902129 70.76489964 16.55546496 67.54938799 16.44140625 64.296875 C15.9704929 60.77961071 14.94009915 58.91790912 13 56 C13 55.34 13 54.68 13 54 C-1.0193107 46.81470408 -12.42316188 43.46382841 -27.625 48.3125 C-35.26307775 50.80865531 -41.23823851 53.61580151 -45 61 C-45.33 63.97 -45.66 66.94 -46 70 C-27.19 70 -8.38 70 11 70 C11.33 71.32 11.66 72.64 12 74 C10.25912374 75.74087626 7.86965834 75.12758322 5.50219727 75.12939453 C3.74015709 75.13412277 3.74015709 75.13412277 1.94252014 75.13894653 C0.66340256 75.1369223 -0.61571503 75.13489807 -1.93359375 75.1328125 C-3.23700211 75.13376923 -4.54041046 75.13472595 -5.88331604 75.13571167 C-8.64658793 75.13718851 -11.40982756 75.1350349 -14.1730957 75.13037109 C-17.71862837 75.12467938 -21.26408526 75.12794934 -24.80961514 75.13394356 C-28.18428078 75.13842292 -31.55892595 75.13528775 -34.93359375 75.1328125 C-36.2106871 75.13483673 -37.48778046 75.13686096 -38.80357361 75.13894653 C-39.98141922 75.13579437 -41.15926483 75.13264221 -42.37280273 75.12939453 C-43.41347397 75.12859894 -44.4541452 75.12780334 -45.52635193 75.12698364 C-48 75 -48 75 -50 74 C-50.82758621 57.63218391 -50.82758621 57.63218391 -46 52 C-39.3648598 45.76653869 -30.51588379 43.53569135 -22 41 C-22.38671875 40.52691406 -22.7734375 40.05382813 -23.171875 39.56640625 C-30.21566194 30.62219164 -33.33636241 22.55331751 -33 11 C-32.12021633 5.31381923 -29.47351931 1.67236706 -24.94921875 -1.80859375 C-16.88968824 -6.73475969 -7.20133367 -6.02902354 0 0 Z M-26.6328125 5.71875 C-29.7566097 10.93102875 -28.63906408 18.6608902 -27.53125 24.44921875 C-25.55779228 30.42832578 -21.64776849 35.04901269 -16.625 38.75 C-12.19849879 39.17157154 -9.35271091 36.68624911 -6 34 C-0.68361566 28.91989941 1.80379923 22.88932317 2.09765625 15.56640625 C1.6715358 9.40324953 -0.4422152 5.32525891 -5.0625 1.125 C-13.27874705 -2.02164781 -20.57238776 -0.66064446 -26.6328125 5.71875 Z " fill="#FFFFFF" transform="translate(65,15)"/>
</svg>
