<?xml version="1.0" encoding="UTF-8"?>
<svg version="1.1" xmlns="http://www.w3.org/2000/svg" width="64" height="64">
<path d="M0 0 C4.0504052 1.50443622 6.5060024 4.20693673 9.484375 7.265625 C10.07347656 7.83925781 10.66257813 8.41289062 11.26953125 9.00390625 C11.83027344 9.56980469 12.39101563 10.13570312 12.96875 10.71875 C13.47631836 11.23083008 13.98388672 11.74291016 14.50683594 12.27050781 C16.11420763 14.55560981 16.56214145 16.23046271 16.734375 19.015625 C15.69189453 20.85180664 15.69189453 20.85180664 13.9921875 22.61328125 C13.34282227 23.29922363 12.69345703 23.98516602 12.02441406 24.69189453 C11.26870117 25.45872559 10.51298828 26.22555664 9.734375 27.015625 C8.88842773 27.90233887 8.04248047 28.78905273 7.17089844 29.70263672 C4.82727922 32.14380296 2.46450249 34.56115717 0.08154297 36.96362305 C-0.90794739 37.96476412 -1.89292037 38.97038834 -2.87353516 39.98022461 C-4.30966874 41.45893321 -5.75851977 42.92402262 -7.2109375 44.38671875 C-8.06187988 45.25224365 -8.91282227 46.11776855 -9.78955078 47.00952148 C-12.41589145 49.13737016 -13.91787757 49.81771988 -17.265625 50.015625 C-19.2578125 48.828125 -19.2578125 48.828125 -21.140625 47.015625 C-22.15962891 46.04496094 -22.15962891 46.04496094 -23.19921875 45.0546875 C-23.88113281 44.38179687 -24.56304687 43.70890625 -25.265625 43.015625 C-25.93722656 42.40460937 -26.60882813 41.79359375 -27.30078125 41.1640625 C-29.94744411 38.6967423 -31.95268721 36.70738222 -33.453125 33.390625 C-33.18564795 30.0025824 -31.54562766 28.43380964 -29.265625 26.015625 C-26.31152799 27.38717004 -23.82554124 29.00426224 -21.265625 31.015625 C-22.915625 29.035625 -24.565625 27.055625 -26.265625 25.015625 C-24.81650695 21.27207005 -24.81650695 21.27207005 -22.453125 20.171875 C-20.265625 20.015625 -20.265625 20.015625 -18.125 21.44921875 C-17.08085938 22.44115234 -17.08085938 22.44115234 -16.015625 23.453125 C-14.95601562 24.44119141 -14.95601562 24.44119141 -13.875 25.44921875 C-13.34390625 25.96613281 -12.8128125 26.48304687 -12.265625 27.015625 C-12.7709375 26.47292969 -13.27625 25.93023437 -13.796875 25.37109375 C-14.4465625 24.65566406 -15.09625 23.94023437 -15.765625 23.203125 C-16.4153125 22.49542969 -17.065 21.78773437 -17.734375 21.05859375 C-19.265625 19.015625 -19.265625 19.015625 -19.265625 16.015625 C-17.265625 14.328125 -17.265625 14.328125 -15.265625 13.015625 C-13.285625 14.665625 -11.305625 16.315625 -9.265625 18.015625 C-9.94625 17.273125 -10.626875 16.530625 -11.328125 15.765625 C-13.265625 13.015625 -13.265625 13.015625 -13.265625 10.828125 C-12.265625 9.015625 -12.265625 9.015625 -8.265625 7.015625 C-4.800625 10.480625 -4.800625 10.480625 -1.265625 14.015625 C-1.04676978 11.93387488 -1.04676978 11.93387488 -2.578125 10.5078125 C-3.135 9.97414063 -3.691875 9.44046875 -4.265625 8.890625 C-4.8225 8.35179687 -5.379375 7.81296875 -5.953125 7.2578125 C-6.38625 6.84789062 -6.819375 6.43796875 -7.265625 6.015625 C-5.71269109 2.43193137 -4.29084747 0.02959205 0 0 Z " fill="#191919" transform="translate(40.265625,6.984375)"/>
</svg>
