<?xml version="1.0" encoding="UTF-8"?>
<svg version="1.1" xmlns="http://www.w3.org/2000/svg" width="250" height="250">
<path d="M0 0 C2.17826952 2.17826952 1.18676495 7.35355795 1.20532227 10.38500977 C1.21535499 11.38626105 1.22538771 12.38751234 1.23572445 13.41910458 C1.26723404 16.67651453 1.29193175 19.93393661 1.31640625 23.19140625 C1.33479821 25.19592701 1.35363425 27.20044374 1.3729248 29.20495605 C1.44150971 36.65742302 1.50147444 44.1099673 1.5625 51.5625 C1.706875 68.206875 1.85125 84.85125 2 102 C51.17 102 100.34 102 151 102 C150.96057137 75.49535085 150.96057137 75.49535085 150.90991211 48.99072266 C150.90539551 43.8034668 150.90539551 43.8034668 150.90455627 41.35653687 C150.90304497 39.68815848 150.89958017 38.01978102 150.89442444 36.35140991 C150.86757651 27.18584193 150.9507803 18.03719043 151.38110352 8.88037109 C151.42681818 7.73268218 151.42681818 7.73268218 151.47345638 6.56180763 C151.76337483 1.23662517 151.76337483 1.23662517 154 -1 C157 -1.25 157 -1.25 160 -1 C162.57763937 1.57763937 162.24006413 3.3000356 162.25994873 6.8127594 C162.25432922 7.6266362 162.24870972 8.440513 162.24291992 9.27905273 C162.24481827 10.13640015 162.24671661 10.99374756 162.24867249 11.8770752 C162.25239401 14.72933945 162.24164224 17.58135182 162.23046875 20.43359375 C162.22927578 22.42546051 162.22882404 24.41732784 162.2290802 26.40919495 C162.22751207 30.60168951 162.21920835 34.79409911 162.20581055 38.98657227 C162.18900691 44.30718807 162.18499088 49.62770883 162.18575573 54.94834805 C162.18548056 59.07445653 162.17994158 63.20054506 162.17275429 67.3266468 C162.16961267 69.28423982 162.167611 71.24183507 162.16686058 73.19943047 C162.15896824 83.04678616 162.06126171 92.890086 161.67700195 102.73071289 C161.65517192 103.53675429 161.63334188 104.3427957 161.61085033 105.1732626 C161.5058136 107.411026 161.5058136 107.411026 161 111 C157.38310988 113.41126008 155.73772896 113.25334952 151.43334961 113.26069641 C150.76320045 113.26452196 150.09305128 113.26834751 149.40259457 113.27228898 C147.15243164 113.28262477 144.90252361 113.27862584 142.65234375 113.2746582 C141.04102339 113.27900432 139.4297051 113.28418714 137.81838989 113.29014587 C133.43831729 113.30355684 129.05833087 113.3041123 124.67824173 113.30158257 C121.02493434 113.30051444 117.37164451 113.30539211 113.71834087 113.310188 C105.10225301 113.3212901 96.48620875 113.32171641 87.87011719 113.31567383 C78.97288547 113.30963019 70.07581174 113.32195333 61.17860699 113.3432439 C53.54628075 113.36083806 45.9140049 113.36686478 38.28165913 113.36360615 C33.72027098 113.3617899 29.15899557 113.36446353 24.59762573 113.37832069 C20.30976002 113.39085923 16.02214137 113.38899289 11.73427963 113.37590981 C10.15845533 113.37353589 8.58261386 113.37630773 7.00680923 113.38453293 C4.85979953 113.39493371 2.71362918 113.38695474 0.56665039 113.3742218 C-1.23744545 113.37447341 -1.23744545 113.37447341 -3.07798767 113.37473011 C-6 113 -6 113 -7.88549519 111.69438267 C-9.80001178 108.78374137 -9.43873666 105.4699234 -9.43237305 102.09814453 C-9.4425647 101.29263153 -9.45275635 100.48711853 -9.46325684 99.65719604 C-9.49353682 96.98233161 -9.50268988 94.30782643 -9.51171875 91.6328125 C-9.52858647 89.75925536 -9.5467395 87.88570939 -9.56611633 86.01217651 C-9.61376006 81.05873183 -9.64343267 76.105332 -9.66955566 71.1517334 C-9.69896653 66.19090133 -9.74589456 61.23024063 -9.79101562 56.26953125 C-9.86947809 47.239528 -9.94268965 38.209565 -9.97396851 29.17926025 C-9.98743951 25.51159209 -10.02682655 21.84501537 -10.07705688 18.17767334 C-10.09555586 16.26932932 -10.11390129 14.36098381 -10.13208008 12.45263672 C-10.14841586 11.56463442 -10.16475164 10.67663212 -10.18158245 9.76172066 C-10.18742761 8.93437353 -10.19327276 8.10702641 -10.19929504 7.25460815 C-10.20904767 6.52788847 -10.2188003 5.80116879 -10.22884846 5.05242729 C-9.95643116 2.60925288 -9.34457469 1.05579134 -8 -1 C-4.36442231 -2.21185923 -3.36216382 -1.59260392 0 0 Z " fill="#FFFFFF" transform="translate(53,114)"/>
<path d="M0 0 C2.85641481 1.73053976 5.30312884 3.86806774 7.8125 6.0625 C9.24301462 7.27009411 10.67399999 8.47713082 12.10546875 9.68359375 C12.78399902 10.26351074 13.4625293 10.84342773 14.16162109 11.44091797 C16.27131279 13.23009342 18.42962321 14.94229124 20.625 16.625 C24.43563456 19.55962662 28.22037037 22.52562831 32 25.5 C38.82070415 30.86292635 45.65700215 36.20362446 52.54052734 41.48583984 C59.48106981 46.81316402 66.37102729 52.20186895 73.24267578 57.61767578 C75.54206275 59.42639057 77.84812863 61.22648731 80.15405273 63.02685547 C81.87843724 64.37769265 83.59585409 65.7370035 85.3125 67.09765625 C87.99595343 69.22279248 90.71071363 71.30190952 93.4375 73.37109375 C94.91710361 74.51766553 96.39627819 75.6647912 97.875 76.8125 C98.58382324 77.33956543 99.29264648 77.86663086 100.02294922 78.40966797 C104.86226006 82.21224076 104.86226006 82.21224076 105.5703125 86.26171875 C105 89 105 89 103 91 C98.96456996 91.63198545 97.31540072 91.20180962 93.84375 88.98046875 C92.71737685 88.06377843 91.60334495 87.13178149 90.5 86.1875 C89.26073112 85.17018973 88.02113872 84.15327347 86.78125 83.13671875 C85.83958984 82.35240479 85.83958984 82.35240479 84.87890625 81.55224609 C81.96397888 79.14409793 78.98149925 76.8247795 76 74.5 C74.83296014 73.58380851 73.66629435 72.66714033 72.5 71.75 C71.9225 71.29625 71.345 70.8425 70.75 70.375 C65.5 66.25 65.5 66.25 63.75097656 64.87573242 C62.58109984 63.95656687 61.41117777 63.03745905 60.24121094 62.1184082 C57.37328843 59.86543906 54.5060901 57.61156277 51.640625 55.35546875 C42.90614045 48.48091859 34.13637213 41.65239741 25.35839844 34.83349609 C22.94840154 32.95988567 20.54035416 31.08379531 18.1328125 29.20703125 C16.93736816 28.27564331 16.93736816 28.27564331 15.71777344 27.32543945 C14.20758655 26.14873381 12.69779087 24.97152583 11.18847656 23.79370117 C6.49887508 20.14145348 1.76726464 16.55026082 -3 13 C-8.54340847 17.132376 -14.04122226 21.31899539 -19.5 25.5625 C-20.27754639 26.16674805 -21.05509277 26.77099609 -21.85620117 27.39355469 C-27.0593343 31.4512909 -32.20433629 35.57353745 -37.3125 39.75 C-43.52241222 44.82725815 -49.82304617 49.75493286 -56.19970703 54.62207031 C-65.69552088 61.89008948 -75.11874564 69.24143598 -84.375 76.8125 C-86.30785201 78.38307598 -88.24217613 79.95180357 -90.17773438 81.51904297 C-91.37557981 82.49253311 -92.56971982 83.47060375 -93.75976562 84.45361328 C-95.36848526 85.77797734 -96.99351326 87.07886006 -98.625 88.375 C-99.52476563 89.10460937 -100.42453125 89.83421875 -101.3515625 90.5859375 C-104 92 -104 92 -107.2109375 91.9140625 C-110 91 -110 91 -112 88 C-111.91080452 84.56597403 -111.2644769 83.276145 -108.875 80.78125 C-107.92625 80.0284375 -106.9775 79.275625 -106 78.5 C-105.4730957 78.0769458 -104.94619141 77.6538916 -104.40332031 77.21801758 C-99.19625209 73.06896221 -93.87677849 69.05781113 -88.57128906 65.03588867 C-82.86138342 60.69760443 -77.28812976 56.21112582 -71.74145508 51.66699219 C-67.69034296 48.35468014 -63.59903033 45.10986658 -59.4375 41.9375 C-54.73897478 38.35407595 -50.10440131 34.70346368 -45.5 31 C-40.89559869 27.29653632 -36.26102522 23.64592405 -31.5625 20.0625 C-25.70733389 15.58929856 -19.98607789 10.96459552 -14.29125977 6.28930664 C-13.64600342 5.76071045 -13.00074707 5.23211426 -12.3359375 4.6875 C-11.76407715 4.21699219 -11.1922168 3.74648438 -10.60302734 3.26171875 C-6.80159173 0.26966586 -4.82597922 -0.73674712 0 0 Z " fill="#FFFFFF" transform="translate(132,18)"/>
</svg>
